<?xml version="1.0" encoding="utf-8"?>
<!-- Generator: Adobe Illustrator 16.0.3, SVG Export Plug-In . SVG Version: 6.00 Build 0)  -->
<!DOCTYPE svg PUBLIC "-//W3C//DTD SVG 1.1//EN" "http://www.w3.org/Graphics/SVG/1.1/DTD/svg11.dtd">
<svg version="1.1" id="Layer_1" xmlns="http://www.w3.org/2000/svg" xmlns:xlink="http://www.w3.org/1999/xlink" x="0px" y="0px"
	 width="566.93px" height="566.93px" viewBox="0 0 566.93 566.93" enable-background="new 0 0 566.93 566.93" xml:space="preserve">
<path fill-rule="evenodd" clip-rule="evenodd" d="M572.16,566.449c-1.729,0.251-2.569,0.48-3.411,0.48
	c-186.884-0.005-373.767-0.021-560.651-0.063c-0.607,0-1.217-0.366-1.865-0.575c-0.225-0.651-0.615-1.25-0.615-1.851
	C5.574,377.337,5.556,190.235,5.557,3.134c0-0.824,0.283-1.647,0.47-2.67C7.022,0.29,7.846,0.018,8.671,0.018
	C196.178-0.001,383.686,0,571.546,0c0.272,1.592,0.591,2.808,0.665,4.038c0.107,1.745,0.041,3.5,0.041,5.251
	c0.002,182.727,0.002,365.453-0.003,548.181C572.249,560.291,572.195,563.109,572.16,566.449z M550.453,248.158
	c-3.179,0-6.003,0-8.826,0c-167.854,0-335.708,0-503.563,0c-1.97,0-3.943-0.07-5.907,0.037c-1.235,0.067-2.455,0.402-3.575,0.597
	c-0.772,7.19-0.642,49.808,0.152,54.844c2.402,1.202,5.069,0.679,7.633,0.681c168.949,0.027,337.897,0.024,506.845,0.021
	c1.314,0,2.638,0.091,3.938-0.037c1.227-0.12,2.434-0.476,3.529-0.7C551.541,296.984,551.432,254.024,550.453,248.158z
	 M285.451,514.443c-3.586,1.175-6.444,0.77-9.249,0.77c-73.533,0.023-147.065,0.019-220.598,0.019c-1.751,0-3.506,0.066-5.25-0.038
	c-1.239-0.074-2.464-0.382-3.996-0.636c-0.056-2.909-0.148-5.506-0.148-8.101c-0.008-59.308-0.006-118.615-0.007-177.924
	c0-1.969,0.043-3.94-0.04-5.906c-0.044-1.053-0.319-2.095-0.474-3.043c-6.055-1.205-11.219-1.096-15.892,0.379
	c-0.053,2.461-0.159,5.052-0.159,7.646c-0.01,64.999-0.007,129.997-0.007,194.993c0,1.752-0.1,3.513,0.053,5.249
	c0.107,1.227,0.564,2.421,0.945,3.949c3.087,0,5.919,0,8.75,0c166.98,0,333.962,0,500.942,0c1.75,0,3.503,0.059,5.25-0.027
	c1.256-0.063,2.504-0.322,3.666-0.485c1.104-2.849,0.679-5.493,0.679-8.079c0.026-65.215,0.021-130.433,0.021-195.65
	c0-1.531,0.064-3.067-0.037-4.593c-0.08-1.242-0.366-2.472-0.606-3.994c-2.693-0.066-5.068-0.203-7.44-0.168
	c-2.554,0.04-5.178-0.353-8.138,0.719c-0.097,8.221-0.037,16.278-0.048,24.33c-0.011,8.098-0.003,16.195-0.003,24.294
	c0,8.095,0,16.192,0,24.291c0,8.098,0,16.195,0,24.293c0,8.314,0,16.631,0,24.947c0,8.099,0,16.196,0,24.294
	s0.066,16.195-0.017,24.29c-0.082,8.042,0.385,16.1-0.325,24.245c-2.798,1.099-5.435,0.706-7.996,0.706
	c-71.782,0.023-143.564,0.019-215.346,0.019c-1.313,0-2.633,0.069-3.938-0.032c-1.243-0.099-2.473-0.374-4.118-0.639
	c-0.063-2.869-0.168-5.455-0.168-8.044c-0.01-59.089-0.007-118.179-0.009-177.267c0-2.188,0.081-4.382-0.051-6.564
	c-0.073-1.227-0.505-2.429-0.793-3.729c-5.246,0.021-10.204-0.857-15.453,0.713C285.451,384.638,285.451,449.359,285.451,514.443z
	 M484.881,37.399c-1.616-0.187-2.664-0.414-3.711-0.416c-24.945-0.02-49.891-0.026-74.838,0.015
	c-1.221,0.001-2.444,0.465-3.98,0.776c0,2.662-0.046,5.06,0.008,7.455c0.142,6.334,0.446,12.669,0.473,19.005
	c0.069,16.193,0,32.385,0.051,48.578c0.005,2.109-0.604,4.395,1.397,6.654c1.859,0,4.034,0.087,6.2-0.024
	c2.116-0.108,4.379,0.616,6.69-1.169c0.043-2.133,0.128-4.514,0.131-6.894c0.011-17.506-0.019-35.012,0.037-52.518
	c0.008-2.334-0.633-4.823,0.893-6.946c5.079-0.646,35.338-0.957,48.573-0.489c1.044,0.038,2.081,0.245,3.238,0.386
	c0.892,2.616,0.571,5.028,0.574,7.38c0.029,22.976,0.019,45.954,0.019,68.93c0,34.574-0.014,69.149,0.026,103.722
	c0.003,2.338-0.505,4.782,0.735,7.283c4.504,0.26,8.955,1.075,13.483-0.564C484.881,171.542,484.881,104.839,484.881,37.399z
	 M116.871,360.897c1.65,0.192,2.509,0.383,3.368,0.383c30.996,0.016,61.993,0.019,92.99-0.009c1.024,0,2.047-0.304,3.426-0.523
	c0.286-5.226,0.71-10.131-0.321-15.02c-0.86-0.246-1.476-0.574-2.092-0.577c-31.433-0.043-62.864-0.059-94.297-0.054
	c-0.84,0-1.681,0.294-3.154,0.572C116.525,350.594,116.416,355.493,116.871,360.897z M470.43,346.057
	c-0.962-0.454-1.327-0.734-1.729-0.796c-0.86-0.128-1.736-0.197-2.604-0.197c-31.267,0.059-62.532,0.125-93.798,0.2
	c-0.206,0-0.434,0.074-0.606,0.184c-0.18,0.112-0.305,0.311-0.94,0.991c-0.322,4.363-0.398,9.263,0.136,14.531
	c8.662,0.679,16.93,0.24,25.18,0.321c8.09,0.08,16.18,0.019,24.271,0.019c8.31,0,16.621,0.08,24.93-0.024
	c8.233-0.104,16.494,0.479,25.098-0.428C470.822,355.769,470.713,351.034,470.43,346.057z"/>
<path fill-rule="evenodd" clip-rule="evenodd" fill="#FFFFFF" d="M550.453,248.158c0.979,5.866,1.088,48.826,0.228,55.443
	c-1.096,0.225-2.303,0.58-3.529,0.7c-1.301,0.128-2.624,0.037-3.938,0.037c-168.948,0.003-337.896,0.006-506.845-0.021
	c-2.564-0.002-5.23,0.521-7.633-0.681c-0.794-5.036-0.925-47.654-0.152-54.844c1.12-0.195,2.339-0.53,3.575-0.597
	c1.964-0.107,3.938-0.037,5.907-0.037c167.854,0,335.709,0,503.563,0C544.45,248.158,547.274,248.158,550.453,248.158z"/>
<path fill-rule="evenodd" clip-rule="evenodd" fill="#FFFFFF" d="M285.451,514.443c0-65.084,0-129.806,0-194.774
	c5.249-1.57,10.207-0.691,15.453-0.713c0.288,1.301,0.72,2.503,0.793,3.729c0.132,2.183,0.051,4.376,0.051,6.564
	c0.002,59.088-0.001,118.178,0.009,177.267c0,2.589,0.105,5.175,0.168,8.044c1.646,0.265,2.875,0.54,4.118,0.639
	c1.306,0.102,2.625,0.032,3.938,0.032c71.781,0,143.563,0.005,215.346-0.019c2.562,0,5.198,0.393,7.996-0.706
	c0.71-8.146,0.243-16.203,0.325-24.245c0.083-8.095,0.017-16.192,0.017-24.29s0-16.195,0-24.294c0-8.316,0-16.633,0-24.947
	c0-8.098,0-16.195,0-24.293c0-8.099,0-16.196,0-24.291c0-8.099-0.008-16.196,0.003-24.294c0.011-8.052-0.049-16.109,0.048-24.33
	c2.96-1.071,5.584-0.679,8.138-0.719c2.372-0.035,4.747,0.102,7.44,0.168c0.24,1.522,0.526,2.752,0.606,3.994
	c0.102,1.525,0.037,3.062,0.037,4.593c0,65.218,0.006,130.436-0.021,195.65c0,2.586,0.425,5.23-0.679,8.079
	c-1.162,0.163-2.41,0.422-3.666,0.485c-1.747,0.086-3.5,0.027-5.25,0.027c-166.98,0-333.962,0-500.942,0c-2.832,0-5.664,0-8.75,0
	c-0.381-1.528-0.838-2.723-0.945-3.949c-0.153-1.736-0.053-3.497-0.053-5.249c0-64.996-0.003-129.994,0.007-194.993
	c0-2.595,0.105-5.186,0.159-7.646c4.673-1.475,9.837-1.584,15.892-0.379c0.154,0.948,0.429,1.99,0.474,3.043
	c0.083,1.966,0.04,3.938,0.04,5.906c0.001,59.309,0,118.616,0.007,177.924c0,2.595,0.092,5.191,0.148,8.101
	c1.532,0.254,2.757,0.562,3.996,0.636c1.745,0.104,3.5,0.038,5.25,0.038c73.532,0,147.065,0.005,220.598-0.019
	C279.007,515.213,281.865,515.618,285.451,514.443z"/>
<path fill-rule="evenodd" clip-rule="evenodd" fill="#FFFFFF" d="M484.881,37.399c0,67.44,0,134.143,0,201.165
	c-4.528,1.639-8.979,0.824-13.483,0.564c-1.24-2.501-0.732-4.945-0.735-7.283c-0.04-34.573-0.026-69.148-0.026-103.722
	c0-22.976,0.011-45.954-0.019-68.93c-0.003-2.353,0.317-4.765-0.574-7.38c-1.157-0.142-2.194-0.349-3.238-0.386
	c-13.235-0.467-43.494-0.156-48.573,0.489c-1.525,2.124-0.885,4.612-0.893,6.946c-0.056,17.506-0.026,35.012-0.037,52.518
	c-0.003,2.38-0.088,4.761-0.131,6.894c-2.312,1.785-4.574,1.061-6.69,1.169c-2.166,0.111-4.341,0.024-6.2,0.024
	c-2.001-2.259-1.393-4.544-1.397-6.654c-0.051-16.193,0.019-32.385-0.051-48.578c-0.026-6.336-0.331-12.67-0.473-19.005
	c-0.054-2.395-0.008-4.793-0.008-7.455c1.536-0.312,2.76-0.775,3.98-0.776c24.947-0.041,49.893-0.035,74.838-0.015
	C482.217,36.985,483.265,37.212,484.881,37.399z"/>
<path fill-rule="evenodd" clip-rule="evenodd" fill="#FFFFFF" d="M116.871,360.897c-0.455-5.404-0.346-10.304-0.08-15.228
	c1.473-0.278,2.313-0.572,3.154-0.572c31.433-0.005,62.864,0.011,94.297,0.054c0.616,0.003,1.231,0.331,2.092,0.577
	c1.031,4.889,0.606,9.794,0.321,15.02c-1.379,0.22-2.402,0.523-3.426,0.523c-30.997,0.027-61.994,0.024-92.99,0.009
	C119.38,361.28,118.521,361.09,116.871,360.897z"/>
<path fill-rule="evenodd" clip-rule="evenodd" fill="#FFFFFF" d="M470.43,346.057c0.283,4.978,0.393,9.712-0.063,14.801
	c-8.604,0.906-16.864,0.323-25.098,0.428c-8.309,0.104-16.62,0.024-24.93,0.024c-8.092,0-16.182,0.062-24.271-0.019
	c-8.25-0.081-16.518,0.357-25.18-0.321c-0.534-5.269-0.458-10.168-0.136-14.531c0.636-0.681,0.761-0.879,0.94-0.991
	c0.173-0.109,0.4-0.184,0.606-0.184c31.266-0.075,62.531-0.142,93.798-0.2c0.868,0,1.744,0.069,2.604,0.197
	C469.103,345.322,469.468,345.603,470.43,346.057z"/>
</svg>
