<?xml version="1.0" encoding="utf-8"?>
<!-- Generator: Adobe Illustrator 16.0.3, SVG Export Plug-In . SVG Version: 6.00 Build 0)  -->
<!DOCTYPE svg PUBLIC "-//W3C//DTD SVG 1.1//EN" "http://www.w3.org/Graphics/SVG/1.1/DTD/svg11.dtd">
<svg version="1.1" id="Layer_1" xmlns="http://www.w3.org/2000/svg" xmlns:xlink="http://www.w3.org/1999/xlink" x="0px" y="0px"
	 width="566.93px" height="566.93px" viewBox="0 0 566.93 566.93" enable-background="new 0 0 566.93 566.93" xml:space="preserve">
<path fill-rule="evenodd" clip-rule="evenodd" d="M573.638,573.197c-6.391,0.865-566.882,0.862-573.064,0.055
	c-0.169-1.12-0.453-2.36-0.521-3.615c-0.095-1.766-0.032-3.541-0.032-5.313C0.02,379.419,0.02,194.514,0.02,9.609
	c0-2.855,0-5.709,0-8.833C1.671,0.48,2.91,0.142,4.167,0.062C5.932-0.051,7.708,0.025,9.48,0.025
	c184.905-0.001,369.809-0.001,554.714,0.002c2.853,0,5.706,0.042,8.787,0.066c0.307,1.632,0.663,2.881,0.75,4.149
	c0.12,1.763,0.04,3.541,0.04,5.313c0.002,184.905,0.002,369.809-0.004,554.715C573.768,567.117,573.687,569.961,573.638,573.197z
	 M413.867,235.226c1.023-6.97,1.355-44.631,0.726-69.868c-0.032-1.273-0.233-2.542-0.372-3.966
	c-2.672-0.838-5.104-0.565-7.488-0.567c-25.242-0.019-50.483,0-75.727-0.031c-2.377-0.003-4.824,0.369-7.594-0.668
	c-0.089-2.412-0.254-4.792-0.256-7.171c-0.018-33.656-0.012-67.312-0.012-100.967c0-3.765-0.056-7.529,0.017-11.292
	c0.051-2.74-0.448-5.218-2.566-7.121c-0.459-0.093-0.888-0.256-1.316-0.256c-22.807-0.024-45.612-0.044-68.417-0.017
	c-1.022,0.001-2.044,0.439-3.196,0.703c-0.1,2.051-0.251,3.798-0.257,5.546c-0.03,6.863-0.013,13.728-0.013,20.592
	c0,30.999,0.011,61.998-0.023,92.997c-0.003,2.364,0.428,4.82-0.677,7.405c-2.309,0.094-4.477,0.252-6.646,0.258
	c-9.963,0.027-19.927,0.012-29.893,0.012c-15.721,0-31.441-0.021-47.162,0.03c-1.903,0.006-4.023-0.611-5.642,1.172
	c-0.091,0.634-0.267,1.288-0.268,1.941c-0.02,22.585-0.031,45.17-0.001,67.754c0.001,1.031,0.408,2.061,0.715,3.515
	c2.643,0,5.05,0,7.458,0c24.799,0,49.598-0.016,74.397,0.026c2.367,0.004,4.834-0.472,7.559,0.785
	c0.061,2.614,0.173,5.224,0.173,7.834c0.009,86.354,0.008,172.708,0.008,259.063c0,2.636,0,5.274,0,7.583
	c2.979,2.146,2.979,2.146,4.298,7.229c0.414,0.141,0.829,0.4,1.244,0.402c21.033,0.052,42.066,0.087,63.101,0.108
	c1.767,0,3.534-0.11,5.301-0.181c0.216-0.009,0.454-0.046,0.638-0.148c0.187-0.104,0.319-0.301,0.975-0.96
	c0.056-2.071,0.186-4.678,0.186-7.283c0.011-69.526,0.028-139.053-0.027-208.578c-0.006-5.921,0.837-11.929-1.207-17.74
	c-0.278-0.792-0.081-1.757-0.081-2.644c-0.001-13.727-0.013-27.456,0.027-41.183c0.004-1.256,0.329-2.509,0.531-3.949
	c7.841-0.72,15.341-0.266,22.824-0.346c7.527-0.082,15.057-0.019,22.585-0.019c7.749,0,15.499,0,23.248,0
	C398.548,235.226,406.058,235.226,413.867,235.226z"/>
<path fill-rule="evenodd" clip-rule="evenodd" fill="#FFFFFF" d="M413.867,235.226c-7.81,0-15.319,0-22.83,0
	c-7.749,0-15.499,0-23.248,0c-7.528,0-15.058-0.063-22.585,0.019c-7.483,0.08-14.983-0.374-22.824,0.346
	c-0.202,1.44-0.527,2.693-0.531,3.949c-0.04,13.728-0.028,27.456-0.027,41.183c0,0.887-0.197,1.852,0.081,2.644
	c2.044,5.812,1.201,11.819,1.207,17.74c0.056,69.525,0.038,139.052,0.027,208.578c0,2.605-0.13,5.212-0.186,7.283
	c-0.655,0.659-0.788,0.856-0.975,0.96c-0.184,0.103-0.422,0.14-0.638,0.148c-1.767,0.07-3.534,0.181-5.301,0.181
	c-21.034-0.021-42.067-0.057-63.101-0.108c-0.415-0.002-0.83-0.262-1.244-0.402c-1.319-5.083-1.319-5.083-4.298-7.229
	c0-2.309,0-4.947,0-7.583c0-86.354,0.001-172.709-0.008-259.063c0-2.61-0.112-5.22-0.173-7.834
	c-2.725-1.257-5.192-0.781-7.559-0.785c-24.799-0.042-49.598-0.026-74.397-0.026c-2.407,0-4.814,0-7.458,0
	c-0.308-1.455-0.714-2.484-0.715-3.515c-0.03-22.584-0.019-45.169,0.001-67.754c0-0.653,0.176-1.307,0.268-1.941
	c1.619-1.783,3.738-1.166,5.642-1.172c15.721-0.052,31.441-0.03,47.162-0.03c9.965,0,19.929,0.015,29.893-0.012
	c2.168-0.006,4.336-0.164,6.646-0.258c1.105-2.584,0.674-5.041,0.677-7.405c0.034-30.999,0.023-61.998,0.023-92.997
	c0-6.864-0.017-13.729,0.013-20.592c0.005-1.748,0.157-3.495,0.257-5.546c1.152-0.264,2.174-0.702,3.196-0.703
	c22.805-0.027,45.61-0.007,68.417,0.017c0.429,0,0.857,0.163,1.316,0.256c2.118,1.903,2.617,4.381,2.566,7.121
	c-0.072,3.763-0.017,7.528-0.017,11.292c0,33.656-0.006,67.312,0.012,100.967c0.002,2.379,0.167,4.759,0.256,7.171
	c2.77,1.037,5.217,0.665,7.594,0.668c25.243,0.032,50.484,0.013,75.727,0.031c2.385,0.002,4.816-0.271,7.488,0.567
	c0.139,1.424,0.34,2.693,0.372,3.966C415.223,190.594,414.891,228.256,413.867,235.226z"/>
</svg>
