<?xml version="1.0" encoding="utf-8"?>
<!-- Generator: Adobe Illustrator 16.0.3, SVG Export Plug-In . SVG Version: 6.00 Build 0)  -->
<!DOCTYPE svg PUBLIC "-//W3C//DTD SVG 1.1//EN" "http://www.w3.org/Graphics/SVG/1.1/DTD/svg11.dtd">
<svg version="1.1" id="Layer_1" xmlns="http://www.w3.org/2000/svg" xmlns:xlink="http://www.w3.org/1999/xlink" x="0px" y="0px"
	 width="566.93px" height="566.93px" viewBox="0 0 566.93 566.93" enable-background="new 0 0 566.93 566.93" xml:space="preserve">
<path fill-rule="evenodd" clip-rule="evenodd" d="M0.788,1.703c188.284,0,376.18,0,564.431,0c0.292,1.256,0.718,2.446,0.817,3.662
	c0.142,1.737,0.047,3.493,0.047,5.241c0.001,182.678,0.003,365.355-0.014,548.033c0,2.788,0.307,5.621-0.317,7.99
	c-0.544,0.49-0.688,0.669-0.874,0.771c-0.183,0.102-0.405,0.166-0.614,0.174c-1.742,0.069-3.487,0.176-5.231,0.176
	c-185.519-0.016-371.035-0.037-556.553-0.072c-0.424,0-0.856-0.154-1.267-0.293c-0.186-0.062-0.328-0.254-0.647-0.518
	c-0.152-0.438-0.544-1.041-0.544-1.644C-0.006,378.177-0.007,191.13,0.019,4.084C0.019,3.48,0.397,2.875,0.788,1.703z
	 M276.989,42.004c-1.213,2.74-2.299,5.108-3.321,7.503c-34.123,79.907-68.234,159.818-102.355,239.725
	c-19.204,44.976-38.413,89.945-57.643,134.909c-5.499,12.855-11.468,25.485-18.533,37.569c-3.974,6.798-8.407,13.27-13.448,19.347
	c-4.021,4.845-8.865,8.523-14.752,10.511c-6.394,2.158-12.972,3.77-19.478,5.592c-2.26,0.632-4.544,1.182-6.906,1.793
	c-0.336,4.041-0.602,7.678,0.148,11.25c2.44,1.408,4.897,0.855,7.242,0.861c18.571,0.051,37.142,0.029,55.712,0.029
	c24.47,0,48.939,0.019,73.409-0.035c2.33-0.005,4.811,0.651,7.133-0.971c0.28-3.774,0.958-7.613-0.556-11.356
	c-1.338-0.168-2.416-0.328-3.498-0.435c-8.259-0.824-16.535-1.639-24.546-3.9c-3.76-1.062-7.618-2.235-10.982-4.148
	c-8.566-4.871-13.791-11.994-13.021-22.401c0.209-2.822,0.516-5.655,1.068-8.427c1.587-7.952,4.256-15.596,7.411-23.033
	c10.743-25.319,21.618-50.582,32.477-75.851c0.498-1.158,1.329-2.172,2.087-3.386c2.091,0,4.05,0,6.01,0
	c56.583,0.05,113.167,0.099,169.749,0.157c0.206,0,0.414,0.135,0.611,0.227c0.193,0.091,0.375,0.206,0.994,0.553
	c0.733,1.605,1.686,3.554,2.526,5.549c5.593,13.28,11.208,26.549,16.724,39.857c4.929,11.898,9.855,23.799,14.561,35.785
	c2.873,7.317,5.034,14.886,6.443,22.644c0.867,4.765,1.358,9.599,0.072,14.305c-2.221,8.123-7.613,13.608-15.265,16.865
	c-5.047,2.15-10.369,3.369-15.809,4.061c-4.712,0.598-9.423,1.2-14.191,1.806c-0.626,4.053-0.805,7.688,0.069,11.333
	c2.589,1.334,5.257,0.771,7.823,0.773c36.486,0.04,72.972,0.029,109.457,0.029c18.353,0,36.705,0.026,55.057-0.035
	c2.329-0.008,4.806,0.651,7.157-0.944c0.462-3.767,0.979-7.581-0.422-11.289c-3.961-0.585-7.629-1.07-11.281-1.67
	c-17.623-2.903-32.146-10.834-42.1-26.104c-2.265-3.473-4.668-6.888-6.598-10.545c-4.474-8.494-9.119-16.935-12.94-25.726
	c-9.398-21.619-18.413-43.406-27.507-65.155C382.407,265.897,339.062,162.16,295.7,58.429c-2.265-5.417-4.599-10.807-6.992-16.425
	C284.877,42.004,281.221,42.004,276.989,42.004z"/>
<path fill-rule="evenodd" clip-rule="evenodd" fill="#FFFFFF" d="M276.989,42.004c4.232,0,7.888,0,11.719,0
	c2.394,5.619,4.728,11.008,6.992,16.425c43.361,103.73,86.707,207.468,130.079,311.195c9.094,21.749,18.108,43.536,27.507,65.155
	c3.821,8.791,8.467,17.231,12.94,25.726c1.93,3.657,4.333,7.072,6.598,10.545c9.953,15.271,24.477,23.201,42.1,26.104
	c3.652,0.6,7.32,1.085,11.281,1.67c1.401,3.708,0.884,7.522,0.422,11.289c-2.352,1.596-4.828,0.937-7.157,0.944
	c-18.352,0.062-36.704,0.035-55.057,0.035c-36.485,0-72.971,0.011-109.457-0.029c-2.566-0.003-5.234,0.561-7.823-0.773
	c-0.874-3.645-0.695-7.28-0.069-11.333c4.769-0.605,9.479-1.208,14.191-1.806c5.439-0.691,10.762-1.91,15.809-4.061
	c7.651-3.257,13.044-8.742,15.265-16.865c1.286-4.706,0.795-9.54-0.072-14.305c-1.409-7.758-3.57-15.326-6.443-22.644
	c-4.705-11.986-9.632-23.887-14.561-35.785c-5.516-13.309-11.131-26.577-16.724-39.857c-0.841-1.995-1.793-3.943-2.526-5.549
	c-0.619-0.347-0.801-0.462-0.994-0.553c-0.197-0.092-0.405-0.227-0.611-0.227c-56.582-0.059-113.166-0.107-169.749-0.157
	c-1.959,0-3.919,0-6.01,0c-0.758,1.214-1.589,2.228-2.087,3.386c-10.859,25.269-21.734,50.531-32.477,75.851
	c-3.155,7.438-5.824,15.081-7.411,23.033c-0.552,2.771-0.859,5.604-1.068,8.427c-0.77,10.407,4.455,17.53,13.021,22.401
	c3.364,1.913,7.222,3.087,10.982,4.148c8.012,2.262,16.287,3.076,24.546,3.9c1.083,0.106,2.16,0.267,3.498,0.435
	c1.514,3.743,0.836,7.582,0.556,11.356c-2.323,1.622-4.804,0.966-7.133,0.971c-24.47,0.054-48.939,0.035-73.409,0.035
	c-18.571,0-37.142,0.021-55.712-0.029c-2.345-0.006-4.802,0.547-7.242-0.861c-0.75-3.572-0.484-7.209-0.148-11.25
	c2.362-0.611,4.646-1.161,6.906-1.793c6.506-1.822,13.083-3.434,19.478-5.592c5.887-1.987,10.73-5.666,14.752-10.511
	c5.042-6.077,9.475-12.549,13.448-19.347c7.064-12.084,13.034-24.714,18.533-37.569c19.23-44.964,38.438-89.934,57.643-134.909
	c34.122-79.906,68.233-159.817,102.355-239.725C274.689,47.112,275.775,44.744,276.989,42.004z M264.432,147.918
	c-3.297,5.423-71.367,162.283-78.398,180.505c-0.377,0.977-0.496,2.055-0.808,3.399c1.802,0.154,3.289,0.376,4.778,0.397
	c49.092,0.728,144.986,0.354,151.285-0.586c0-0.612,0.163-1.294-0.025-1.858C338.933,322.808,266.825,152.041,264.432,147.918z"/>
<path fill-rule="evenodd" clip-rule="evenodd" d="M264.432,147.918c2.393,4.123,74.5,174.89,76.832,181.857
	c0.188,0.564,0.025,1.246,0.025,1.858c-6.299,0.94-102.192,1.313-151.285,0.586c-1.489-0.021-2.976-0.243-4.778-0.397
	c0.312-1.345,0.431-2.423,0.808-3.399C193.065,310.201,261.135,153.341,264.432,147.918z"/>
</svg>
