<?xml version="1.0" standalone="no"?>
<!DOCTYPE svg PUBLIC "-//W3C//DTD SVG 20010904//EN"
 "http://www.w3.org/TR/2001/REC-SVG-20010904/DTD/svg10.dtd">
<svg version="1.0" xmlns="http://www.w3.org/2000/svg"
 width="3654.000000pt" height="1695.000000pt" viewBox="0 0 3654.000000 1695.000000"
 preserveAspectRatio="xMidYMid meet">
<metadata>
Created by potrace 1.15, written by Peter Selinger 2001-2017
</metadata>
<g transform="translate(0.000000,1695.000000) scale(0.100000,-0.100000)"
fill="#000000" stroke="none">
<path d="M21967 16083 c-3 -5 -224 -521 -492 -1148 -268 -627 -547 -1279 -620
-1450 -73 -170 -345 -807 -605 -1415 -650 -1522 -649 -1519 -784 -1745 -129
-217 -225 -325 -337 -378 -80 -38 -214 -80 -313 -97 -103 -18 -96 -11 -96
-106 l0 -84 995 0 995 0 0 84 0 85 -42 5 c-24 3 -88 10 -143 16 -135 15 -286
54 -357 92 -64 34 -135 106 -163 164 -24 51 -30 148 -15 231 25 134 94 315
329 863 l239 555 1222 0 1222 0 213 -510 c232 -557 294 -725 325 -875 36 -176
20 -272 -61 -364 -87 -99 -214 -142 -501 -172 l-58 -5 0 -85 0 -84 1245 0
1245 0 0 84 0 85 -47 6 c-122 14 -272 48 -340 76 -165 69 -269 160 -387 337
-125 188 -198 343 -464 977 -71 171 -234 560 -362 865 -128 305 -267 638 -310
740 -43 102 -211 502 -373 890 -410 980 -776 1854 -859 2050 -38 91 -83 200
-100 243 l-31 77 -83 0 c-46 0 -85 -3 -87 -7z m-141 -1510 c14 -31 88 -207
166 -392 137 -329 203 -486 332 -793 35 -84 112 -268 171 -408 59 -140 136
-325 172 -410 139 -331 193 -462 193 -466 0 -2 -484 -4 -1075 -4 -591 0 -1075
2 -1075 5 0 5 54 131 330 770 59 138 143 331 185 430 43 99 152 351 242 560
90 209 201 467 246 572 45 106 83 193 85 193 2 0 14 -25 28 -57z"/>
<path d="M28795 16074 c-427 -43 -793 -146 -1120 -314 -467 -239 -896 -625
-1204 -1080 -334 -493 -537 -1023 -606 -1580 -26 -205 -26 -593 -1 -780 2 -19
10 -73 16 -120 104 -773 575 -1562 1217 -2037 458 -338 1005 -538 1697 -619
252 -29 851 -29 1071 1 17 2 86 11 155 20 458 60 936 214 1403 452 l107 55 0
1006 c1 554 3 1048 6 1097 19 355 56 488 165 598 97 97 201 134 407 144 l132
6 0 84 0 83 -1220 0 -1220 0 0 -83 0 -84 168 -11 c281 -20 373 -51 488 -166
95 -96 134 -186 149 -346 4 -36 9 -76 11 -90 2 -14 4 -497 4 -1074 0 -831 -3
-1052 -12 -1058 -35 -24 -285 -140 -368 -171 -345 -128 -730 -185 -1061 -158
-424 34 -832 193 -1188 464 -530 402 -945 1220 -1045 2057 -3 25 -8 65 -11 90
-16 127 -23 299 -19 515 2 132 6 251 8 265 2 14 6 57 10 95 32 328 114 667
236 970 54 136 181 373 271 510 338 508 805 814 1389 908 137 23 159 25 325
32 372 18 757 -53 1049 -193 502 -240 836 -648 1087 -1327 l47 -130 82 -3 82
-3 -7 111 c-3 61 -8 121 -10 133 -2 12 -6 67 -10 122 -4 55 -9 109 -10 120 -2
11 -6 63 -10 115 -3 52 -8 113 -10 135 -4 43 -12 136 -20 238 -3 34 -9 123
-15 197 -6 74 -15 178 -20 230 -5 52 -12 136 -15 185 -4 50 -8 106 -10 125 -2
19 -6 78 -10 130 -10 161 -3 150 -100 150 -95 0 -87 10 -100 -115 -17 -152
-77 -251 -167 -276 -60 -16 -134 -1 -326 67 -540 192 -761 256 -1008 295 -181
28 -645 35 -859 13z"/>
<path d="M11661 15866 l2 -84 121 -7 c66 -4 158 -13 204 -21 149 -26 390 -129
507 -217 62 -46 246 -231 348 -348 l57 -67 -3 -2358 c-1 -1298 -6 -2375 -10
-2394 -4 -19 -14 -71 -23 -115 -30 -163 -120 -281 -266 -350 -108 -52 -187
-66 -400 -72 l-188 -6 0 -83 0 -84 1095 0 1095 0 0 85 0 85 -137 0 c-169 1
-225 6 -328 31 -165 40 -289 127 -339 238 -39 87 -60 194 -76 388 -8 101 -14
4123 -6 4123 3 0 94 -109 203 -242 110 -134 455 -556 768 -938 755 -922 2136
-2608 2709 -3307 l460 -563 88 0 88 0 3 2828 c4 3088 0 2913 59 3070 54 143
179 244 366 293 59 16 121 22 270 26 l192 6 0 83 0 84 -1099 0 -1099 0 0 -85
0 -85 136 0 c261 0 408 -32 536 -117 129 -87 176 -190 205 -456 13 -114 16
-3948 4 -3946 -5 1 -109 126 -233 278 -124 152 -509 623 -855 1046 -346 424
-717 878 -825 1010 -108 132 -459 562 -780 955 -321 393 -710 869 -864 1058
l-279 342 -854 0 -854 0 2 -84z"/>
<path d="M9465 15901 c-58 -32 -85 -47 -580 -326 -203 -115 -399 -225 -435
-245 -65 -36 -348 -196 -635 -358 -82 -46 -204 -115 -270 -152 -681 -383 -693
-389 -910 -512 -80 -46 -658 -371 -810 -457 -164 -92 -215 -120 -420 -236
-233 -132 -260 -147 -525 -294 -102 -57 -191 -110 -197 -119 -10 -13 -13 -467
-13 -2198 0 -1200 3 -2189 6 -2198 6 -14 233 -16 2420 -16 1927 0 2416 2 2419
12 3 7 4 1614 3 3570 l-3 3557 -50 -28z"/>
<path d="M4224 7758 c-246 -304 -865 -1066 -1374 -1693 -509 -627 -929 -1146
-934 -1153 -6 -10 1028 -12 5178 -12 2852 0 5186 3 5186 6 0 3 -282 352 -627
777 -345 425 -966 1189 -1380 1700 l-754 927 -2423 0 -2423 0 -449 -552z"/>
<path d="M26780 7978 c-10 -24 -231 -540 -490 -1148 -733 -1716 -1049 -2455
-1210 -2830 -81 -190 -241 -563 -355 -830 -113 -267 -249 -570 -300 -675 -151
-306 -307 -527 -420 -594 -67 -40 -216 -92 -330 -115 -44 -9 -90 -18 -102 -21
-22 -5 -23 -10 -23 -90 l0 -85 995 0 995 0 0 84 0 85 -42 5 c-24 3 -88 10
-143 16 -223 24 -379 82 -459 171 -79 88 -99 166 -76 306 21 136 85 304 329
873 l239 555 1222 0 1223 0 212 -510 c294 -708 353 -887 342 -1045 -10 -149
-99 -254 -263 -310 -68 -24 -277 -58 -361 -60 -10 0 -13 -24 -13 -85 l0 -85
1245 0 1245 0 0 79 c0 44 -4 82 -9 85 -8 6 -22 8 -126 21 -143 18 -298 76
-412 153 -127 86 -252 260 -393 547 -49 99 -259 585 -466 1080 -207 495 -411
983 -454 1085 -42 102 -135 322 -205 490 -70 168 -151 361 -180 430 -59 140
-146 347 -425 1015 -106 253 -242 577 -302 720 -60 143 -152 365 -206 493
l-97 232 -83 0 -83 0 -19 -42z m-71 -1598 c38 -91 175 -419 306 -730 130 -311
270 -646 312 -745 41 -99 99 -236 128 -305 96 -226 235 -561 235 -566 0 -2
-484 -4 -1075 -4 -591 0 -1075 2 -1075 5 0 2 93 219 206 482 610 1416 713
1655 793 1840 47 111 89 199 93 194 5 -4 39 -81 77 -171z"/>
<path d="M15190 7795 l0 -85 43 0 c137 -1 320 -25 417 -56 133 -42 259 -134
317 -232 33 -57 68 -161 81 -247 7 -38 15 -86 19 -105 11 -54 12 -4515 1
-4660 -12 -157 -39 -293 -72 -366 -53 -116 -196 -219 -356 -257 -87 -21 -138
-25 -307 -26 l-143 -1 0 -85 0 -85 1095 0 1095 0 0 85 0 85 -137 0 c-433 0
-640 108 -707 367 -44 169 -44 192 -45 2522 -1 1218 1 2213 3 2210 2 -2 38
-78 79 -169 41 -91 91 -199 110 -240 19 -41 60 -131 92 -200 31 -69 69 -150
83 -180 102 -222 398 -868 512 -1115 75 -165 240 -523 365 -795 125 -272 277
-603 337 -735 113 -246 208 -452 506 -1100 266 -579 292 -637 315 -688 l21
-48 80 3 80 3 74 160 c41 88 120 261 176 385 106 231 586 1278 1373 2995 245
534 489 1067 543 1185 54 118 118 258 142 310 25 52 57 123 73 158 15 34 30
61 31 59 10 -10 3 -4411 -6 -4507 -14 -135 -36 -231 -68 -299 -35 -77 -125
-162 -214 -205 -113 -54 -179 -66 -400 -73 l-198 -6 0 -83 0 -84 1340 0 1340
0 0 85 0 85 -137 0 c-166 1 -237 7 -323 27 -144 34 -279 121 -335 218 -14 23
-34 78 -46 123 -49 193 -48 147 -45 2657 1 1293 6 2370 10 2395 18 107 48 216
73 261 61 113 208 213 358 244 101 20 143 24 303 24 l142 1 0 85 0 85 -893 0
-894 0 -40 -92 c-23 -51 -128 -282 -233 -513 -106 -231 -214 -467 -240 -525
-26 -58 -95 -208 -153 -335 -58 -126 -186 -408 -285 -625 -99 -217 -229 -503
-290 -635 -60 -132 -192 -420 -292 -640 -100 -220 -206 -452 -235 -515 -101
-220 -427 -935 -448 -982 -11 -27 -23 -48 -26 -48 -3 0 -77 155 -163 343 -87
188 -223 484 -304 657 -145 314 -435 939 -734 1585 -87 187 -188 405 -225 485
-37 80 -79 170 -93 200 -13 30 -101 219 -194 420 -93 201 -213 459 -266 574
-53 115 -142 307 -198 425 l-100 216 -892 3 -892 2 0 -85z"/>
<path d="M29646 7788 c-3 -51 -8 -140 -11 -198 -3 -58 -9 -193 -15 -300 -5
-107 -12 -247 -15 -310 -3 -63 -8 -144 -10 -180 -3 -36 -7 -138 -11 -227 l-6
-163 91 0 91 0 1 43 c1 45 1 48 25 182 73 411 318 715 647 805 129 35 320 47
835 49 l482 2 0 -2503 c0 -2523 -1 -2633 -36 -2808 -40 -201 -172 -333 -393
-392 -58 -15 -121 -21 -268 -25 l-193 -6 0 -83 0 -84 1335 0 1335 0 0 85 0 85
-152 1 c-84 0 -164 2 -178 5 -14 2 -54 9 -90 15 -173 28 -330 130 -382 245
-43 97 -75 301 -79 499 -1 39 -1 1172 0 2518 l1 2449 543 -5 c601 -4 645 -8
830 -71 236 -81 422 -252 532 -488 38 -83 76 -226 100 -373 9 -55 18 -110 21
-122 4 -22 9 -23 95 -23 l90 0 -5 73 c-3 39 -8 124 -11 187 -3 63 -7 169 -10
235 -3 66 -7 154 -10 195 -2 41 -7 140 -10 220 -4 80 -10 228 -16 330 -5 102
-9 195 -9 208 l0 22 -2569 0 -2569 0 -6 -92z"/>
<path d="M1910 2985 l0 -1355 5185 0 5185 0 0 1355 0 1355 -5185 0 -5185 0 0
-1355z"/>
</g>
</svg>
