<?xml version="1.0" encoding="utf-8"?>
<!-- Generator: Adobe Illustrator 16.0.3, SVG Export Plug-In . SVG Version: 6.00 Build 0)  -->
<!DOCTYPE svg PUBLIC "-//W3C//DTD SVG 1.1//EN" "http://www.w3.org/Graphics/SVG/1.1/DTD/svg11.dtd">
<svg version="1.1" id="Layer_1" xmlns="http://www.w3.org/2000/svg" xmlns:xlink="http://www.w3.org/1999/xlink" x="0px" y="0px"
	 width="566.93px" height="566.93px" viewBox="0 0 566.93 566.93" enable-background="new 0 0 566.93 566.93" xml:space="preserve">
<path fill-rule="evenodd" clip-rule="evenodd" d="M566.297,569.309c-189.12,0-377.672,0-566.226-0.023
	c-0.601,0-1.201-0.366-1.844-0.575c-0.233-0.671-0.626-1.276-0.626-1.887C-2.427,378.694-2.429,190.566-2.403,2.437
	c0-0.61,0.382-1.218,0.525-1.649c0.325-0.282,0.466-0.453,0.647-0.55c0.191-0.102,0.418-0.186,0.629-0.186
	C186.644-0.016,373.891-0.079,561.134-0.14c1.526,0,3.053,0,4.893,0c0.336,1.449,0.765,2.646,0.863,3.869
	c0.143,1.748,0.048,3.514,0.048,5.271c0,183.735,0.001,367.469-0.016,551.205C566.922,563.008,567.269,565.86,566.297,569.309z
	 M106.348,510.429c5.774,0.838,319.048,1.361,337.066,0.593c1.055-0.043,2.095-0.348,3.415-0.579c0.139-1.908,0.36-3.622,0.371-5.34
	c0.045-5.932,0.019-11.863,0.019-17.794c0-19.332,0.019-38.666-0.022-57.998c-0.005-2.331,0.448-4.781-0.652-6.764
	c-0.81-0.278-1.212-0.539-1.614-0.539c-111.159-0.053-222.32-0.088-333.479-0.114c-1.312,0-2.625,0.112-3.936,0.191
	c-0.213,0.012-0.441,0.084-0.629,0.186c-0.179,0.099-0.316,0.276-0.88,0.79c-0.098,1.083-0.325,2.569-0.354,4.059
	C104.977,461.648,105.31,504.129,106.348,510.429z M355.569,41.14c-1.161,0.375-1.991,0.531-2.718,0.895
	c-14.093,7.084-151.495,85.059-156.218,88.726c0,2.02,0,4.413,0,6.807c0,41.964,0,83.929,0,125.894c0,2.417-0.063,4.836,0.041,7.248
	c0.055,1.245,0.418,2.477,0.714,4.115c2.656,0.061,5.034,0.16,7.413,0.16c32.078,0.01,64.155,0.008,96.232,0.008
	c16.041,0,32.079,0.022,48.117-0.028c2.127-0.007,4.407,0.586,6.775-1.305c0-76.122,0.001-152.561-0.014-229
	C355.912,43.625,355.717,42.589,355.569,41.14z M356.12,291.296c-53.302,0-106.239,0-159.262,0c-1.166,1.38-2.318,2.695-3.423,4.051
	c-14.98,18.403-29.958,36.81-44.926,55.224c-13.029,16.026-26.051,32.058-39.043,48.112c-0.901,1.113-2.341,2.071-1.911,3.878
	c6.003,0.95,246.699,1.407,333.434,0.633c1.45-0.014,2.899-0.157,5.721-0.316C416.209,365.157,386.31,328.445,356.12,291.296z"/>
<path fill-rule="evenodd" clip-rule="evenodd" fill="#FFFFFF" d="M106.348,510.429c-1.038-6.3-1.371-48.78-0.698-83.31
	c0.03-1.489,0.257-2.976,0.354-4.059c0.564-0.514,0.701-0.691,0.88-0.79c0.188-0.102,0.417-0.174,0.629-0.186
	c1.311-0.079,2.624-0.191,3.936-0.191c111.16,0.026,222.32,0.062,333.479,0.114c0.402,0,0.805,0.261,1.614,0.539
	c1.101,1.982,0.647,4.433,0.652,6.764c0.041,19.332,0.022,38.666,0.022,57.998c0,5.931,0.026,11.862-0.019,17.794
	c-0.011,1.718-0.232,3.432-0.371,5.34c-1.32,0.231-2.36,0.536-3.415,0.579C425.396,511.79,112.123,511.267,106.348,510.429z"/>
<path fill-rule="evenodd" clip-rule="evenodd" fill="#FFFFFF" d="M355.569,41.14c0.147,1.449,0.343,2.484,0.343,3.519
	c0.015,76.439,0.014,152.878,0.014,229c-2.368,1.891-4.648,1.298-6.775,1.305c-16.038,0.05-32.076,0.028-48.117,0.028
	c-32.077,0-64.154,0.002-96.232-0.008c-2.379,0-4.757-0.099-7.413-0.16c-0.295-1.638-0.659-2.87-0.714-4.115
	c-0.104-2.412-0.041-4.831-0.041-7.248c0-41.965,0-83.93,0-125.894c0-2.394,0-4.787,0-6.807
	c4.723-3.667,142.125-81.642,156.218-88.726C353.578,41.671,354.408,41.516,355.569,41.14z"/>
<path fill-rule="evenodd" clip-rule="evenodd" fill="#FFFFFF" d="M356.12,291.296c30.189,37.149,60.089,73.861,90.589,111.581
	c-2.821,0.159-4.271,0.303-5.721,0.316c-86.734,0.774-327.43,0.317-333.434-0.633c-0.43-1.807,1.01-2.765,1.911-3.878
	c12.993-16.055,26.015-32.086,39.043-48.112c14.969-18.414,29.946-36.82,44.926-55.224c1.104-1.355,2.257-2.671,3.423-4.051
	C249.881,291.296,302.818,291.296,356.12,291.296z"/>
</svg>
