<?xml version="1.0" encoding="utf-8"?>
<!-- Generator: Adobe Illustrator 16.0.3, SVG Export Plug-In . SVG Version: 6.00 Build 0)  -->
<!DOCTYPE svg PUBLIC "-//W3C//DTD SVG 1.1//EN" "http://www.w3.org/Graphics/SVG/1.1/DTD/svg11.dtd">
<svg version="1.1" id="Layer_1" xmlns="http://www.w3.org/2000/svg" xmlns:xlink="http://www.w3.org/1999/xlink" x="0px" y="0px"
	 width="566.93px" height="566.93px" viewBox="0 0 566.93 566.93" enable-background="new 0 0 566.93 566.93" xml:space="preserve">
<path fill-rule="evenodd" clip-rule="evenodd" d="M0.775,566.901c-0.414-1.525-0.726-2.143-0.726-2.757
	C0.014,377.283,0,190.428,0,3.569C0,2.724,0.207,1.878,0.375,0.59c1.291-0.194,2.506-0.473,3.734-0.538
	C5.855-0.042,7.61,0.02,9.36,0.02c182.701,0,365.403,0,548.104,0c2.816,0,5.635,0,8.754,0c0.275,1.615,0.584,2.836,0.671,4.073
	c0.106,1.524,0.034,3.062,0.034,4.592c0,183.139,0,366.277,0,549.417c0,2.61,0,5.218,0,8.068c-1.607,0.32-2.826,0.691-4.063,0.78
	c-1.742,0.125-3.5,0.042-5.25,0.042c-182.7,0-365.402,0-548.104-0.002C6.693,566.99,3.878,566.934,0.775,566.901z M405.378,45.076
	c-3.454-0.078-6.04-0.185-8.626-0.186c-75.494-0.008-150.988-0.007-226.481-0.007c-1.531,0-3.067-0.063-4.594,0.031
	c-1.231,0.075-2.45,0.342-4.067,0.581c-0.053,3.189-0.14,5.999-0.14,8.809c-0.008,86.434-0.007,172.869-0.007,259.301
	c0,22.759,0.007,45.518-0.01,68.273c-0.001,2.367-0.15,4.736-0.229,7.043c-2.034,1.212-3.684,2.265-5.393,3.211
	c-23.353,12.9-46.716,25.782-70.071,38.683c-12.635,6.976-25.267,13.959-37.866,21.001c-0.98,0.548-2.696,0.691-2.236,3.037
	c2.519,0,5.12,0,7.722,0c153.175,0,306.349,0,459.524-0.002c1.751,0,3.503,0.048,5.251-0.035c0.975-0.045,2.257,0.31,2.583-1.587
	c-38.346-21.201-76.767-42.442-115.359-63.779C405.378,274.728,405.378,160.319,405.378,45.076z M524.682,467.592
	c-3.689-0.043-6.497-0.107-9.307-0.107c-154.864-0.002-309.729-0.002-464.594-0.002c-1.75,0-3.502-0.051-5.249,0.023
	c-1.253,0.057-2.5,0.283-4.109,0.479c-0.46,6.377-0.184,12.468-0.232,18.545c-0.049,6.123-0.125,12.252,0.021,18.372
	c0.146,6.035-0.669,12.132,0.634,18.364c1.309,0.146,2.365,0.371,3.421,0.371c159.232-0.066,318.465-0.149,477.697-0.256
	c0.367-0.003,0.734-0.414,1.678-0.979C524.731,504.675,524.686,486.602,524.682,467.592z"/>
<path fill-rule="evenodd" clip-rule="evenodd" fill="#FFFFFF" d="M405.378,45.076c0,115.243,0,229.651,0,344.374
	c38.593,21.337,77.014,42.578,115.359,63.779c-0.326,1.896-1.608,1.542-2.583,1.587c-1.748,0.083-3.5,0.035-5.251,0.035
	c-153.175,0.002-306.349,0.002-459.524,0.002c-2.602,0-5.204,0-7.722,0c-0.46-2.346,1.256-2.489,2.236-3.037
	c12.599-7.042,25.231-14.025,37.866-21.001c23.354-12.9,46.718-25.782,70.071-38.683c1.709-0.946,3.359-1.999,5.393-3.211
	c0.078-2.307,0.227-4.676,0.229-7.043c0.018-22.756,0.01-45.515,0.01-68.273c0-86.432-0.001-172.867,0.007-259.301
	c0-2.811,0.087-5.62,0.14-8.809c1.617-0.239,2.836-0.506,4.067-0.581c1.527-0.094,3.063-0.031,4.594-0.031
	c75.493,0,150.987-0.001,226.481,0.007C399.338,44.892,401.924,44.999,405.378,45.076z M374.773,236.015
	c-1.584-0.143-3.275-0.404-4.969-0.43c-38.633-0.606-67.643-0.282-72.977,0.864c-0.124,1.358-0.354,2.826-0.379,4.3
	c-0.793,44.943-0.378,136.77,0.686,143.179c1.367,0.171,2.833,0.486,4.306,0.521c31.06,0.746,68.006,0.348,73.579-0.819
	c0.15-1.382,0.426-2.859,0.456-4.339C376.319,339.535,375.874,242.451,374.773,236.015z M265.825,236.105
	c-1.377-0.17-2.849-0.495-4.324-0.509c-5.903-0.063-11.806-0.031-17.708-0.031c-15.521,0-31.044-0.019-46.566,0.03
	c-1.875,0.005-3.968-0.572-5.467,1.179c-0.747,8.344-0.517,141.997,0.305,147.138c1.365,0.176,2.83,0.499,4.301,0.536
	c29.56,0.729,64.03,0.345,69.631-0.801c0.159-1.16,0.45-2.415,0.489-3.676C267.319,352.692,266.834,242.266,265.825,236.105z
	 M297.063,74.816c-0.198,0.649-0.543,1.251-0.543,1.854c-0.029,42.396-0.031,84.791-0.01,127.186c0,0.603,0.347,1.206,0.551,1.87
	c0.671,0.216,1.268,0.576,1.864,0.576c24.692,0.029,49.386,0.029,74.08,0.002c0.6,0,1.199-0.354,1.852-0.56
	c0.204-0.68,0.542-1.281,0.542-1.882c0.021-42.394,0.017-84.788-0.014-127.183c0-0.61-0.35-1.222-0.554-1.89
	c-0.634-0.219-1.235-0.609-1.84-0.61c-24.692-0.035-49.384-0.039-74.075-0.009C298.315,74.17,297.717,74.579,297.063,74.816z
	 M265.81,74.589c-1.377-0.168-2.849-0.487-4.324-0.505c-5.461-0.063-10.926-0.028-16.39-0.028c-15.951,0-31.905-0.02-47.857,0.028
	c-1.876,0.005-3.967-0.569-5.853,1.6c0,2.006,0,4.399,0,6.789c0,36.495-0.001,72.989,0,109.483c0,3.497-0.058,6.996,0.044,10.488
	c0.036,1.224,0.474,2.434,0.706,3.544c8.875,0.816,68.719,0.553,73.997-0.363c0.116-1.338,0.33-2.811,0.36-4.287
	C267.285,162.368,266.869,80.885,265.81,74.589z"/>
<path fill-rule="evenodd" clip-rule="evenodd" fill="#FFFFFF" d="M524.682,467.592c0.004,19.01,0.05,37.083-0.04,54.811
	c-0.943,0.564-1.311,0.976-1.678,0.979c-159.231,0.106-318.465,0.189-477.697,0.256c-1.056,0-2.112-0.225-3.421-0.371
	c-1.303-6.232-0.488-12.329-0.634-18.364c-0.147-6.12-0.071-12.249-0.021-18.372c0.049-6.077-0.228-12.168,0.232-18.545
	c1.61-0.195,2.856-0.422,4.109-0.479c1.747-0.074,3.499-0.023,5.249-0.023c154.865,0,309.729,0,464.594,0.002
	C518.185,467.484,520.992,467.549,524.682,467.592z"/>
<path fill-rule="evenodd" clip-rule="evenodd" d="M374.773,236.015c1.101,6.437,1.546,103.521,0.702,143.275
	c-0.03,1.479-0.306,2.957-0.456,4.339c-5.573,1.167-42.52,1.565-73.579,0.819c-1.473-0.034-2.938-0.35-4.306-0.521
	c-1.063-6.409-1.479-98.236-0.686-143.179c0.025-1.474,0.255-2.941,0.379-4.3c5.334-1.146,34.344-1.471,72.977-0.864
	C371.498,235.611,373.189,235.872,374.773,236.015z"/>
<path fill-rule="evenodd" clip-rule="evenodd" d="M265.825,236.105c1.01,6.16,1.495,116.587,0.661,143.866
	c-0.039,1.261-0.33,2.516-0.489,3.676c-5.601,1.146-40.071,1.53-69.631,0.801c-1.471-0.037-2.936-0.36-4.301-0.536
	c-0.822-5.141-1.052-138.793-0.305-147.138c1.5-1.751,3.593-1.174,5.467-1.179c15.522-0.048,31.045-0.03,46.566-0.03
	c5.902,0,11.805-0.032,17.708,0.031C262.976,235.611,264.447,235.936,265.825,236.105z"/>
<path fill-rule="evenodd" clip-rule="evenodd" d="M297.063,74.816c0.654-0.238,1.253-0.646,1.854-0.646
	c24.691-0.029,49.383-0.025,74.075,0.009c0.604,0.001,1.206,0.392,1.84,0.61c0.204,0.668,0.554,1.28,0.554,1.89
	c0.03,42.396,0.035,84.79,0.014,127.183c0,0.601-0.338,1.202-0.542,1.882c-0.652,0.206-1.252,0.56-1.852,0.56
	c-24.694,0.027-49.388,0.027-74.08-0.002c-0.597,0-1.193-0.359-1.864-0.576c-0.204-0.664-0.551-1.268-0.551-1.87
	c-0.021-42.396-0.02-84.791,0.01-127.186C296.52,76.068,296.864,75.466,297.063,74.816z"/>
<path fill-rule="evenodd" clip-rule="evenodd" d="M265.81,74.589c1.059,6.295,1.475,87.779,0.684,126.749
	c-0.031,1.476-0.244,2.948-0.36,4.287c-5.278,0.916-65.123,1.179-73.997,0.363c-0.232-1.11-0.669-2.32-0.706-3.544
	c-0.102-3.493-0.044-6.991-0.044-10.488c-0.001-36.494,0-72.988,0-109.483c0-2.39,0-4.782,0-6.789
	c1.886-2.169,3.977-1.595,5.853-1.6c15.952-0.048,31.906-0.028,47.857-0.028c5.463,0,10.928-0.035,16.39,0.028
	C262.961,74.102,264.433,74.421,265.81,74.589z"/>
</svg>
