<?xml version="1.0" encoding="utf-8"?>
<!-- Generator: Adobe Illustrator 16.0.3, SVG Export Plug-In . SVG Version: 6.00 Build 0)  -->
<!DOCTYPE svg PUBLIC "-//W3C//DTD SVG 1.1//EN" "http://www.w3.org/Graphics/SVG/1.1/DTD/svg11.dtd">
<svg version="1.1" id="Layer_1" xmlns="http://www.w3.org/2000/svg" xmlns:xlink="http://www.w3.org/1999/xlink" x="0px" y="0px"
	 width="566.93px" height="566.93px" viewBox="0 0 566.93 566.93" enable-background="new 0 0 566.93 566.93" xml:space="preserve">
<path fill-rule="evenodd" clip-rule="evenodd" fill="#FFFFFF" d="M524.682,467.592c0.004,19.01,0.05,37.083-0.04,54.811
	c-0.943,0.564-1.311,0.976-1.678,0.979c-159.231,0.106-318.465,0.189-477.697,0.256c-1.056,0-2.112-0.225-3.421-0.371
	c-1.303-6.232-0.488-12.329-0.634-18.364c-0.147-6.12-0.071-12.249-0.021-18.372c0.049-6.077-0.228-12.168,0.232-18.545
	c1.61-0.195,2.856-0.422,4.109-0.479c1.747-0.074,3.499-0.023,5.249-0.023c154.865,0,309.729,0,464.594,0.002
	C518.185,467.484,520.992,467.549,524.682,467.592z"/>
<path fill-rule="evenodd" clip-rule="evenodd" d="M-0.405,567.406c-0.407-1.573-0.711-2.202-0.711-2.828
	C-1.149,377.579-1.163,190.581-1.161,3.583c0-0.857,0.217-1.714,0.392-3.009C0.56,0.385,1.798,0.114,3.047,0.05
	C4.819-0.041,6.6,0.019,8.376,0.019c182.778,0,365.557,0,548.335,0c2.857,0,5.715,0,8.881,0c0.27,1.671,0.565,2.915,0.649,4.172
	c0.104,1.548,0.032,3.107,0.032,4.663c0.002,183.223,0.002,366.445,0.002,549.669c0,2.646,0,5.293,0,8.173
	c-1.657,0.317-2.9,0.684-4.164,0.771c-1.768,0.122-3.552,0.04-5.328,0.04c-182.778,0-365.557,0.003-548.335-0.002
	C5.596,567.504,2.745,567.444-0.405,567.406z M362.356,49.733c0,3.566,0,6.221,0,8.875c0,79.739,0.023,159.478-0.04,239.218
	c-0.006,7.128,0.908,14.133,2.27,21.055c3.08,15.663,6.479,31.263,9.77,46.882c6.082,28.862,12.198,57.717,18.263,86.582
	c3.375,16.055,6.692,32.124,10,48.193c1.162,5.643,1.12,7.18-0.02,12.587c-2.47,0.895-5.146,0.516-7.76,0.516
	c-69.301,0.024-138.598,0.019-207.898,0.016c-1.777,0-3.558,0.035-5.328-0.086c-0.833-0.058-1.642-0.448-2.626-0.735
	c-0.079-5.313,0.905-10.269,2.079-15.204c0.765-3.219,1.601-6.427,2.186-9.678c1.727-9.602,3.241-19.244,5.027-28.835
	c3.247-17.438,6.652-34.845,9.953-52.271c4.746-25.059,9.367-50.142,14.227-75.175c1.95-10.047,3.192-20.058,3.163-30.351
	c-0.182-63.302-0.091-126.604-0.091-189.907c0-18.435,0.014-36.871-0.016-55.306c-0.003-2.39,0.304-4.836-0.571-7.482
	c-4.484-0.871-8.812-0.769-13.03-0.358C199.967,54.06,96.738,507.377,94.61,519.448c-0.108,0.613,0.125,1.286,0.224,2.14
	c2.549,1.036,5.221,0.589,7.81,0.583c54.851-0.149,109.703-0.331,164.554-0.515c24.429-0.084,48.857-0.193,73.286-0.285
	c20.211-0.076,40.422-0.182,60.632-0.214c21.988-0.038,43.979,0.014,65.968-0.041c2.335-0.006,4.814,0.583,7.002-0.702
	c0.081-0.9,0.298-1.589,0.178-2.213c-30.38-155.983-60.782-311.959-91.284-468.453C376.224,49.475,369.675,49.439,362.356,49.733z
	 M346.146,306.237c0-2.774,0-5.19,0-7.606c0-80.394,0-160.788,0-241.182c0-1.331,0.075-2.671-0.032-3.996
	c-0.104-1.268-0.398-2.519-0.711-4.37c-19.061-0.08-37.898-0.092-56.734-0.02c-18.8,0.073-37.598-1.128-56.083-0.448
	c-0.451,0.551-0.683,0.704-0.706,0.884c-0.146,1.095-0.342,2.196-0.342,3.294c0.043,84.166,0.102,168.331,0.168,252.496
	c0,0.203,0.106,0.42,0.213,0.602c0.112,0.188,0.283,0.339,0.653,0.768c0.584,0.098,1.429,0.36,2.274,0.36
	c36.199,0.006,72.397-0.008,108.594-0.049C344.065,306.972,344.689,306.646,346.146,306.237z"/>
<path fill-rule="evenodd" clip-rule="evenodd" fill="#FFFFFF" d="M362.356,49.733c7.318-0.294,13.867-0.259,20.623,0.015
	c30.502,156.493,60.904,312.469,91.284,468.453c0.12,0.624-0.097,1.313-0.178,2.213c-2.188,1.285-4.667,0.696-7.002,0.702
	c-21.989,0.055-43.979,0.003-65.968,0.041c-20.21,0.032-40.421,0.138-60.632,0.214c-24.429,0.092-48.857,0.201-73.286,0.285
	c-54.852,0.184-109.703,0.365-164.554,0.515c-2.589,0.006-5.261,0.453-7.81-0.583c-0.099-0.854-0.333-1.526-0.224-2.14
	c2.128-12.071,105.357-465.388,107.305-471.18c4.218-0.411,8.546-0.513,13.03,0.358c0.875,2.646,0.568,5.092,0.571,7.482
	c0.03,18.435,0.016,36.871,0.016,55.306c0,63.302-0.091,126.604,0.091,189.907c0.029,10.293-1.213,20.304-3.163,30.351
	c-4.86,25.033-9.481,50.116-14.227,75.175c-3.301,17.427-6.706,34.833-9.953,52.271c-1.787,9.591-3.3,19.233-5.027,28.835
	c-0.584,3.251-1.421,6.459-2.186,9.678c-1.174,4.936-2.158,9.892-2.079,15.204c0.984,0.287,1.793,0.678,2.626,0.735
	c1.77,0.121,3.551,0.086,5.328,0.086c69.3,0.003,138.597,0.009,207.898-0.016c2.614,0,5.29,0.379,7.76-0.516
	c1.14-5.407,1.182-6.944,0.02-12.587c-3.308-16.069-6.625-32.139-10-48.193c-6.064-28.865-12.181-57.72-18.263-86.582
	c-3.29-15.619-6.689-31.219-9.77-46.882c-1.361-6.922-2.275-13.927-2.27-21.055c0.063-79.74,0.04-159.479,0.04-239.218
	C362.356,55.954,362.356,53.299,362.356,49.733z"/>
<path fill-rule="evenodd" clip-rule="evenodd" fill="#FFFFFF" d="M346.146,306.237c-1.457,0.409-2.081,0.734-2.706,0.734
	c-36.197,0.041-72.396,0.055-108.594,0.049c-0.845,0-1.689-0.263-2.274-0.36c-0.37-0.429-0.541-0.58-0.653-0.768
	c-0.107-0.182-0.213-0.398-0.213-0.602c-0.066-84.165-0.125-168.331-0.168-252.496c0-1.098,0.195-2.199,0.342-3.294
	c0.023-0.181,0.255-0.333,0.706-0.884c18.485-0.681,37.283,0.521,56.083,0.448c18.836-0.072,37.674-0.06,56.734,0.02
	c0.313,1.851,0.607,3.102,0.711,4.37c0.107,1.325,0.032,2.665,0.032,3.996c0,80.394,0,160.788,0,241.182
	C346.146,301.047,346.146,303.463,346.146,306.237z"/>
</svg>
