<?xml version="1.0" encoding="utf-8"?>
<!-- Generator: Adobe Illustrator 16.0.3, SVG Export Plug-In . SVG Version: 6.00 Build 0)  -->
<!DOCTYPE svg PUBLIC "-//W3C//DTD SVG 1.1//EN" "http://www.w3.org/Graphics/SVG/1.1/DTD/svg11.dtd">
<svg version="1.1" id="Layer_1" xmlns="http://www.w3.org/2000/svg" xmlns:xlink="http://www.w3.org/1999/xlink" x="0px" y="0px"
	 width="566.93px" height="566.93px" viewBox="0 0 566.93 566.93" enable-background="new 0 0 566.93 566.93" xml:space="preserve">
<path fill-rule="evenodd" clip-rule="evenodd" d="M0.569,566.794C-0.202,560.263-0.172,6.535,0.549,0.595
	c1.134-0.177,2.372-0.46,3.623-0.541c1.54-0.099,3.091-0.033,4.636-0.033c183.074,0,366.147,0,549.221,0c2.631,0,5.261,0,8.115,0
	c0.309,1.667,0.659,2.912,0.742,4.173c0.119,1.759,0.041,3.531,0.041,5.297c0,182.632,0.002,365.263-0.013,547.896
	c-0.001,2.837,0.297,5.707-0.475,8.845c-1.291,0.245-2.523,0.603-3.774,0.688c-1.76,0.119-3.532,0.041-5.299,0.041
	c-182.631,0.002-365.262,0.002-547.894-0.007C6.636,566.954,3.802,566.854,0.569,566.794z M425.417,422.254
	c0-6.908,0-13.073,0-19.238c0-6.183,0-12.365,0-18.55c0-5.961,0-11.924,0-17.886c0-6.183,0-12.365,0-18.548
	s0.05-12.367-0.015-18.548c-0.065-6.121,0.298-12.264-0.292-18.673c-1.464-0.181-2.513-0.42-3.563-0.42
	c-16.342-0.02-32.682-0.076-49.022,0.016c-18.523,0.103-37.046,0.37-55.569,0.488c-1.682,0.011-3.365-0.525-5.072-0.813
	c-0.089-1.53-0.229-2.628-0.206-3.723c0.412-18.963-0.394-37.922,0.613-56.906c0.829-15.633,0.177-31.344,0.135-47.021
	c-0.003-1.043-0.398-2.086-0.69-3.513c-2.587-0.037-4.986-0.101-7.388-0.101c-26.719-0.007-53.438-0.004-80.156-0.005
	c-6.625,0-13.25,0.032-19.875-0.048c-1.228-0.015-2.452-0.498-3.795-0.791c-0.118-3.619-0.316-6.917-0.314-10.216
	c0.021-32.23,0.081-64.46,0.1-96.691c0-1.254-0.295-2.507-0.469-3.897c-1.188-0.193-2.032-0.451-2.877-0.45
	c-53.436,0.004-106.873,0.027-160.31,0.08c-0.606,0-1.215,0.406-1.955,0.668c-0.171,0.861-0.484,1.706-0.485,2.55
	c-0.031,15.678-0.038,31.356,0.003,47.034c0.003,1.015,0.417,2.029,0.673,3.197c1.432,0.098,2.506,0.234,3.581,0.235
	c18.104,0.028,36.208,0.047,54.311,0.049c16.118,0.002,32.235-0.031,48.352-0.012c1.483,0.001,2.966,0.267,4.671,0.432
	c0.183,1.382,0.442,2.438,0.443,3.492c0.023,17.445,0.043,34.89,0,52.334c-0.043,17.441-0.172,34.882-0.209,52.324
	c-0.002,1.231,0.453,2.464,0.763,4.046c2.477,0,4.665,0,6.853,0c9.716,0,19.433,0.048,29.149-0.014
	c11.024-0.07,22.048-0.256,33.072-0.353c6.621-0.06,13.242-0.054,19.862-0.058c6.811-0.005,13.622-0.001,20.433,0.053
	c0.332,0.002,0.661,0.509,1.44,1.151c0,1.801,0,3.985,0,6.169c0,19.211,0,38.422,0,57.634c0,13.69-0.024,27.381,0.028,41.071
	c0.007,1.906-0.563,3.992,1.184,5.831c0.922,0.1,2.003,0.318,3.086,0.319c15.899,0.023,31.798,0.054,47.697,0.011
	c18.987-0.053,37.974-0.188,56.961-0.241c1.477-0.004,2.954,0.337,4.546,0.534c0.181,1.39,0.438,2.46,0.438,3.532
	c0.029,16.337,0.035,32.677,0.012,49.014c-0.001,1.312,0.066,2.761-0.44,3.907c-1.135,2.566-0.846,5.195-0.821,7.819
	c0.069,7.479,0.259,14.959,0.293,22.437c0.029,6.815-0.147,13.631-0.081,20.445c0.014,1.431,0.693,2.855,1.103,4.428
	c2.774,0,5.199,0.005,7.623-0.002c19.188-0.044,38.372-0.312,57.561-0.673c29.579-0.555,59.177-0.146,88.766-0.146
	c2.43,0,4.863,0.081,7.286-0.051c1.226-0.066,2.431-0.524,3.526-0.779c0.813-10.101,0.538-46.991-0.397-52.099
	c-2.193-0.965-4.642-0.568-7.009-0.571c-31.8-0.03-63.598-0.014-95.396-0.028C431.179,422.493,428.786,422.356,425.417,422.254z"/>
<path fill-rule="evenodd" clip-rule="evenodd" fill="#FFFFFF" d="M425.417,422.254c3.369,0.103,5.762,0.239,8.154,0.241
	c31.798,0.015,63.596-0.002,95.396,0.028c2.367,0.003,4.815-0.394,7.009,0.571c0.936,5.107,1.21,41.998,0.397,52.099
	c-1.096,0.255-2.301,0.713-3.526,0.779c-2.423,0.132-4.856,0.051-7.286,0.051c-29.589,0-59.187-0.409-88.766,0.146
	c-19.188,0.361-38.372,0.629-57.561,0.673c-2.424,0.007-4.849,0.002-7.623,0.002c-0.409-1.572-1.089-2.997-1.103-4.428
	c-0.066-6.814,0.11-13.63,0.081-20.445c-0.034-7.478-0.224-14.957-0.293-22.437c-0.024-2.624-0.313-5.253,0.821-7.819
	c0.507-1.146,0.439-2.596,0.44-3.907c0.023-16.337,0.018-32.677-0.012-49.014c-0.001-1.072-0.258-2.143-0.438-3.532
	c-1.592-0.197-3.069-0.538-4.546-0.534c-18.987,0.054-37.974,0.188-56.961,0.241c-15.898,0.043-31.798,0.013-47.697-0.011
	c-1.083-0.001-2.164-0.22-3.086-0.319c-1.747-1.839-1.177-3.925-1.184-5.831c-0.053-13.69-0.028-27.381-0.028-41.071
	c0-19.212,0-38.423,0-57.634c0-2.184,0-4.368,0-6.169c-0.779-0.642-1.108-1.149-1.44-1.151c-6.811-0.054-13.622-0.058-20.433-0.053
	c-6.621,0.004-13.242-0.001-19.862,0.058c-11.024,0.097-22.048,0.283-33.072,0.353c-9.716,0.062-19.433,0.014-29.149,0.014
	c-2.188,0-4.376,0-6.853,0c-0.31-1.582-0.766-2.815-0.763-4.046c0.037-17.442,0.166-34.883,0.209-52.324
	c0.043-17.444,0.023-34.889,0-52.334c-0.001-1.055-0.26-2.11-0.443-3.492c-1.706-0.165-3.188-0.431-4.671-0.432
	c-16.117-0.019-32.234,0.014-48.352,0.012c-18.103-0.002-36.206-0.021-54.311-0.049c-1.074-0.001-2.149-0.137-3.581-0.235
	c-0.256-1.168-0.67-2.182-0.673-3.197c-0.041-15.678-0.034-31.356-0.003-47.034c0.001-0.845,0.314-1.689,0.485-2.55
	c0.74-0.263,1.349-0.668,1.955-0.668c53.437-0.053,106.874-0.076,160.31-0.08c0.845-0.001,1.689,0.257,2.877,0.45
	c0.174,1.39,0.469,2.644,0.469,3.897c-0.019,32.23-0.079,64.461-0.1,96.691c-0.001,3.298,0.197,6.597,0.314,10.216
	c1.343,0.292,2.567,0.776,3.795,0.791c6.625,0.08,13.25,0.048,19.875,0.048c26.718,0.001,53.437-0.002,80.156,0.005
	c2.401,0,4.801,0.063,7.388,0.101c0.292,1.427,0.688,2.469,0.69,3.513c0.042,15.676,0.694,31.388-0.135,47.021
	c-1.007,18.983-0.201,37.943-0.613,56.906c-0.023,1.095,0.117,2.192,0.206,3.723c1.707,0.287,3.391,0.823,5.072,0.813
	c18.523-0.118,37.046-0.386,55.569-0.488c16.341-0.092,32.681-0.035,49.022-0.016c1.05,0,2.099,0.239,3.563,0.42
	c0.59,6.409,0.227,12.552,0.292,18.673c0.064,6.181,0.015,12.365,0.015,18.548s0,12.365,0,18.548c0,5.962,0,11.925,0,17.886
	c0,6.185,0,12.367,0,18.55C425.417,409.181,425.417,415.346,425.417,422.254z"/>
</svg>
